<svg height="512" viewBox="0 0 64 64" width="512" xmlns="http://www.w3.org/2000/svg"><g id="Filled_outline" data-name="Filled outline"><path d="m32 26a2 2 0 0 0 2-2 2 2 0 0 0 4 0v-8h4v-6l-4-4v-3h-13v3l-3 3v13a2 2 0 0 0 4 0v2a2 2 0 0 0 4 0 2 2 0 0 0 2 2z" fill="#ffd782"/><path d="m38 20h2a2 2 0 0 1 2 2v2a0 0 0 0 1 0 0h-4a0 0 0 0 1 0 0v-4a0 0 0 0 1 0 0z" fill="#ffd782" transform="matrix(0 1 -1 0 62 -18)"/><path d="m48 61h-32a5.089 5.089 0 0 1 -5-4l-3-16h48l-3 16a5.089 5.089 0 0 1 -5 4z" fill="#9b1e5a"/><path d="m17 20-5 17h-4l6-21h36l6 21h-4l-5-17z" fill="#9b1e5a"/><rect fill="#b459a1" height="4" rx="2" width="52" x="6" y="37"/><path d="m18 30h14v7h-14z" fill="#fcf05a"/><path d="m32 32h14v5h-14z" fill="#87cee9"/><path d="m23 30h4v7h-4z" fill="#e97424"/><g fill="#6b0c3e"><path d="m20 57h-5l-2-12h7z"/><path d="m24 45h6v12h-6z"/><path d="m44 57h5l2-12h-7z"/><path d="m34 45h6v12h-6z" transform="matrix(-1 0 0 -1 74 102)"/></g><rect fill="#e2a23b" height="4" rx="2" transform="matrix(0 1 -1 0 55.5 -16.5)" width="13" x="29.5" y="17.5"/><rect fill="#f9bb4b" height="4" rx="2" transform="matrix(0 1 -1 0 51.5 -12.5)" width="13" x="25.5" y="17.5"/><rect fill="#e2a23b" height="4" rx="2" transform="matrix(0 1 -1 0 47.5 -8.5)" width="13" x="21.5" y="17.5"/><rect fill="#f9bb4b" height="4" rx="2" transform="matrix(0 1 -1 0 42.5 -5.5)" width="11" x="18.5" y="16.5"/><path d="m24 2v3.586l-3 3v6.414h-7a1 1 0 0 0 -.962.725l-5.827 20.393a2.982 2.982 0 0 0 -.067 5.742l2.876 15.34a6.066 6.066 0 0 0 5.98 4.8h32a6.068 6.068 0 0 0 5.982-4.816l2.874-15.324a2.982 2.982 0 0 0 -.067-5.742l-5.827-20.393a1 1 0 0 0 -.962-.725h-7v-5.414l-4-4v-3.586zm5 22a1 1 0 0 1 -2 0v-9a1 1 0 0 1 2 0zm-1 3a2.981 2.981 0 0 0 2-.78 2.954 2.954 0 0 0 4 0 2.972 2.972 0 0 0 4.816-1.22h1.184a3 3 0 0 0 3-3v-1h3.252l4.412 15h-3.664v-4a1 1 0 0 0 -1-1h-13v-1a1 1 0 0 0 -1-1h-14a1 1 0 0 0 -1 1v6h-3.664l4.412-15h3.252v1a2.99 2.99 0 0 0 4.116 2.78 3 3 0 0 0 2.884 2.22zm5-3a1 1 0 0 1 -2 0v-9a1 1 0 0 1 2 0zm6-3h2v1a1 1 0 0 1 -1 1h-1zm-2 3a1 1 0 0 1 -2 0v-9a1 1 0 0 1 2 0zm-9 12v-5h3v5zm-9 0v-5h3v5zm5-5h2v5h-2zm9 2h12v3h-12zm-8-11a1 1 0 0 1 -2 0v-7a1 1 0 0 1 2 0zm-10.246-5h6.246v2h-4a1 1 0 0 0 -.959.718l-4.789 16.282h-1.926zm37.266 39.8a4.116 4.116 0 0 1 -4.02 3.2h-32a4.114 4.114 0 0 1 -4.018-3.184l-2.777-14.816h45.595zm3.98-16.8h-48a1 1 0 0 1 0-2h48a1 1 0 0 1 0 2zm-6.754-23 5.428 19h-1.926l-4.789-16.282a1 1 0 0 0 -.959-.718h-8v-2zm-8.246-6.586v4.586h-2a2.987 2.987 0 0 0 -5-2.22 2.954 2.954 0 0 0 -4 0 2.954 2.954 0 0 0 -4 0 2.908 2.908 0 0 0 -3-.6v-2.766l3-3v-2.414h11v2.414z"/><path d="m15 58h5a1 1 0 0 0 1-1v-12a1 1 0 0 0 -1-1h-7a1 1 0 0 0 -.986 1.165l2 12a1 1 0 0 0 .986.835zm4-12v10h-3.153l-1.666-10z"/><path d="m24 58h6a1 1 0 0 0 1-1v-12a1 1 0 0 0 -1-1h-6a1 1 0 0 0 -1 1v12a1 1 0 0 0 1 1zm1-12h4v10h-4z"/><path d="m44 58h5a1 1 0 0 0 .986-.835l2-12a1 1 0 0 0 -.986-1.165h-7a1 1 0 0 0 -1 1v12a1 1 0 0 0 1 1zm1-12h4.819l-1.666 10h-3.153z"/><path d="m34 58h6a1 1 0 0 0 1-1v-12a1 1 0 0 0 -1-1h-6a1 1 0 0 0 -1 1v12a1 1 0 0 0 1 1zm1-12h4v10h-4z"/></g></svg>